<?xml version="1.0" encoding="UTF-8"?>
<svg id="Ebene_1" xmlns="http://www.w3.org/2000/svg" xmlns:xlink="http://www.w3.org/1999/xlink" version="1.1" viewBox="0 0 500 500">
  <!-- Generator: Adobe Illustrator 29.1.0, SVG Export Plug-In . SVG Version: 2.1.0 Build 142)  -->
  <defs>
    <style>
      .st0 {
        fill: none;
      }

      .st1 {
        clip-path: url(#clippath-1);
      }

      .st2 {
        clip-path: url(#clippath-3);
      }

      .st3 {
        clip-path: url(#clippath-4);
      }

      .st4 {
        clip-path: url(#clippath-2);
      }

      .st5 {
        fill: #fff;
      }

      .st6 {
        fill: #333632;
        fill-rule: evenodd;
      }

      .st7 {
        clip-path: url(#clippath);
      }

      .st8 {
        fill: #fab713;
      }
    </style>
    <clipPath id="clippath">
      <rect class="st0" x="110.9" y="113.1" width="345.7" height="345.7"/>
    </clipPath>
    <clipPath id="clippath-1">
      <path class="st0" d="M283.7,113.1c-95.4,0-172.8,77.4-172.8,172.8s77.4,172.8,172.8,172.8,172.8-77.4,172.8-172.8-77.4-172.8-172.8-172.8Z"/>
    </clipPath>
    <clipPath id="clippath-2">
      <rect class="st0" x="110.9" y="26.7" width="172.8" height="172.8"/>
    </clipPath>
    <clipPath id="clippath-3">
      <path class="st0" d="M197.3,26.7c-47.7,0-86.4,38.7-86.4,86.4s38.7,86.4,86.4,86.4,86.4-38.7,86.4-86.4S245,26.7,197.3,26.7Z"/>
    </clipPath>
    <clipPath id="clippath-4">
      <rect class="st0" x="8.6" y="10.1" width="483.1" height="479.2"/>
    </clipPath>
  </defs>
  <g class="st7">
    <g class="st1">
      <path class="st8" d="M110.9,113.1h345.7v345.7H110.9V113.1Z"/>
    </g>
  </g>
  <g class="st4">
    <g class="st2">
      <path class="st5" d="M110.9,26.7h172.8v172.8H110.9V26.7Z"/>
    </g>
  </g>
  <g class="st3">
    <path class="st6" d="M317.3,283.8c0-18.6-14.2-32.8-32-32.8s-32.9,14.2-32.9,32.8,15.1,31.9,32.9,31.9,32-14.2,32-31.9ZM369.8,368.8c-7.1,7.1-18.7,7.1-25.8,0-7.1-7.1-7.1-19.5,0-26.5,8-7.1,14.3-16.8,17.8-26.6,4.4-9.7,7.1-21.2,7.1-31.9s-2.7-22.1-6.2-31.8c-4.4-10.6-10.7-19.5-18.7-27.5-7.1-7.1-7.1-18.6,0-25.7,8-7.1,19.6-7.1,26.7,0,10.6,10.6,19.6,23.9,25.8,38.9,6.3,14.2,8.9,29.2,8.9,46s-2.6,31.9-8.9,46.1c-6.2,14.2-15.1,27.5-26.7,38.9ZM432.1,428.1c-8,7.1-19.6,7.1-26.7,0-7.1-7.1-7.1-18.6,0-25.7,15.1-15.9,27.6-34.5,36.5-54.9,8-19.5,12.5-41.6,12.5-63.8s-4.5-45.1-12.5-64.6c-8.9-20.4-21.4-38.9-37.4-54.9-7.1-7.1-7.1-18.6.9-25.7,7.2-7.1,18.7-7.1,25.8,0,18.7,18.6,34.7,41.6,44.5,66.4,10.7,23.9,16,50.5,16,78.8s-5.3,54-16,77.9c-9.8,24.8-24.9,47.8-43.6,66.4ZM258.6,112.9c0-17.7-7.1-34.5-19.6-46-11.6-12.4-28.5-19.5-46.3-19.5s-34.7,7.1-47.2,19.5c-11.6,11.5-19.6,28.3-19.6,46s7.1,34.6,18.7,46c.9.9,1.8,1.8,2.7,2.6,11.6,10.6,27.6,17.7,45.4,17.7s34.7-7.1,46.3-19.5c12.5-11.5,19.6-28.3,19.6-46.9ZM90.5,131.5H27.3c-10.7,0-18.7-7.9-18.7-18.6s8-18.6,18.7-18.6h63.2c4.5-20.4,14.2-39,28.5-54,19.6-18.6,45.4-30.1,73.8-30.1s54.3,11.5,72.9,30.1c18.7,18.6,30.3,44.3,30.3,72.6s-11.6,54.9-30.3,73.5c-18.7,18.6-44.5,30.1-72.9,30.1s-39.2-6.2-55.2-16c-5.3,9.8-9.8,20.4-13.3,31-5.3,16-8.9,33.6-8.9,52.2,0,46,19.6,88.5,49.8,118.6,31.1,31,73,49.6,120.1,49.6s18.7,8,18.7,18.6-8.9,18.6-18.7,18.6c-56.9,0-108.5-23-145.9-60.2-37.4-37.2-60.5-88.5-60.5-145.2s3.6-44.3,9.8-63.7c5.3-15.9,12.5-31,21.3-45.2-9.8-12.4-16-27.4-19.6-43.4ZM222.1,112.9c0-15.9-13.4-29.2-29.4-29.2s-30.3,13.3-30.3,29.2,13.3,30.1,30.3,30.1,29.4-13.3,29.4-30.1Z"/>
  </g>
</svg>